<?xml version="1.0" encoding="utf-8"?>
<!-- Uploaded to: SVG Repo, www.svgrepo.com, Generator: SVG Repo Mixer Tools -->
<svg fill="#000000" width="800px" height="800px" viewBox="0 0 32 32" version="1.1" xmlns="http://www.w3.org/2000/svg">
<title>sourceforge</title>
<path fill="#F4F4F5" d="M15.292 8.768c-0.148 0.009-0.264 0.131-0.264 0.28 0 0.006 0 0.012 0.001 0.019l-0-0.001c0.18 2.771-3.302 3.453-3.302 7.805v0.029c-0.002 0.047-0.003 0.102-0.003 0.158 0 2.506 1.984 4.549 4.468 4.643l0.009 0c2.491-0.094 4.474-2.136 4.474-4.641 0-0.056-0.001-0.112-0.003-0.168l0 0.008v-0.029c-0.045-1.213-0.384-2.338-0.948-3.318l0.018 0.035c-0.090-0.17-0.362-0.109-0.332 0.051 0.84 3.742-1.269 6.062-1.269 3.18 0-4.912-1.742-7.143-2.663-7.984-0.046-0.043-0.108-0.069-0.176-0.069-0.003 0-0.007 0-0.010 0h0.001zM19.161 4.824c-0.118 0.003-0.224 0.053-0.3 0.132l-1.74 1.74c-0.079 0.076-0.128 0.182-0.128 0.3s0.049 0.224 0.127 0.3l0 0 8.962 8.974c0.105 0.105 0.171 0.25 0.171 0.41s-0.065 0.305-0.171 0.41l-11.345 11.345c-0.077 0.078-0.124 0.185-0.124 0.303 0 0.061 0.013 0.119 0.035 0.171l-0.001-0.003c0.065 0.153 0.214 0.259 0.388 0.259 0.001 0 0.002 0 0.003 0h-0v-0.010h3.461c0.002 0 0.003 0 0.005 0 0.115 0 0.219-0.046 0.295-0.12l12.067-12.064c0.080-0.072 0.129-0.176 0.129-0.292 0-0.003-0-0.006-0-0.009v0c-0.002-0.118-0.051-0.224-0.129-0.3l-11.406-11.415c-0.073-0.081-0.178-0.132-0.295-0.132-0.002 0-0.003 0-0.005 0h0zM13.498 2.835c-0.118 0.002-0.224 0.051-0.3 0.129l-0 0-12.067 12.055c-0.079 0.076-0.128 0.182-0.128 0.3s0.049 0.224 0.127 0.3l0 0 11.437 11.415c0.073 0.081 0.178 0.132 0.295 0.132 0.002 0 0.003 0 0.005-0h-0c0.117-0.003 0.222-0.053 0.298-0.132l0-0 1.711-1.73c0.079-0.076 0.127-0.182 0.127-0.3s-0.049-0.224-0.127-0.3l-8.963-8.965c-0.107-0.106-0.173-0.253-0.173-0.415s0.066-0.309 0.173-0.415l11.345-11.345c0.077-0.078 0.124-0.185 0.124-0.303 0-0.061-0.013-0.118-0.035-0.171l0.001 0.003c-0.065-0.153-0.214-0.259-0.388-0.259-0.001 0-0.002 0-0.003 0h0z"></path>
</svg>